<?xml version="1.0" encoding="utf-8"?>
<!-- Generator: Circuit Diagram, cdlibrary.dll 4.0.0.0 -->
<!DOCTYPE svg PUBLIC "-//W3C//DTD SVG 1.1//EN" "http://www.w3.org/Graphics/SVG/1.1/DTD/svg11.dtd">
<svg version="1.1" width="380" height="280" xmlns="http://www.w3.org/2000/svg">
	<text x="300" y="190" stroke="white" style="font-family:Arial;font-size:11px;text-anchor:start" dominant-baseline="middle" transform="rotate(0, 300, 190)">Spark Gap</text>
	<text x="240" y="160" stroke="white" style="font-family:Arial;font-size:11px;text-anchor:start" dominant-baseline="middle" transform="rotate(0, 240, 160)">1:115</text>
	<text x="190" y="190" stroke="white" style="font-family:Arial;font-size:11px;text-anchor:start" dominant-baseline="middle" transform="rotate(0, 190, 190)">7.5 mH</text>
	<line x1="290" y1="140" x2="290" y2="170" style="stroke:rgb(255, 255, 255);stroke-linecap:square;stroke-width:2" />
	<line x1="220" y1="140" x2="220" y2="170" style="stroke:rgb(255, 255, 255);stroke-linecap:square;stroke-width:2" />
	<text x="110" y="210" stroke="white" style="font-family:Arial;font-size:11px;text-anchor:start" dominant-baseline="middle" transform="rotate(0, 110, 210)">120VAC</text>
	<line x1="80" y1="240" x2="90" y2="240" style="stroke:rgb(255, 255, 255);stroke-linecap:square;stroke-width:2" />
	<line x1="80" y1="240" x2="80" y2="248" style="stroke:rgb(255, 255, 255);stroke-linecap:square;stroke-width:2" />
	<path d="M 72,248 L 88,248 L 80,256 L 72,248 Z" style="fill-opacity:0;fill:rgb(255, 255, 255);stroke:rgb(255, 255, 255);stroke-linecap:square;stroke-width:2" />
	<line x1="290" y1="140" x2="320" y2="140" style="stroke:rgb(255, 255, 255);stroke-linecap:square;stroke-width:2" />
	<text x="320" y="205" style="font-family:Arial;font-size:12px;text-anchor:middle" dominant-baseline="baseline" transform="rotate(0, 320, 205)"></text>
	<line x1="320" y1="213" x2="320" y2="240" style="stroke:rgb(255, 255, 255);stroke-linecap:square;stroke-width:2" />
	<ellipse cx="320" cy="210" rx="3" ry="3" style="fill-opacity:0;fill:rgb(255, 255, 255);stroke:rgb(255, 255, 255);stroke-width:2" />
	<text x="320" y="175" stroke="white" style="font-family:Arial;font-size:12px;text-anchor:middle" dominant-baseline="hanging" transform="rotate(0, 320, 175)"></text>
	<line x1="320" y1="140" x2="320" y2="167" style="stroke:rgb(255, 255, 255);stroke-linecap:square;stroke-width:2" />
	<ellipse cx="320" cy="170" rx="3" ry="3" style="fill-opacity:0;fill:rgb(255, 255, 255);stroke:rgb(255, 255, 255);stroke-width:2" />
	<line x1="220" y1="170" x2="231" y2="170" style="stroke:rgb(255, 255, 255);stroke-linecap:square;stroke-width:2" />
	<line x1="220" y1="210" x2="231" y2="210" style="stroke:rgb(255, 255, 255);stroke-linecap:square;stroke-width:2" />
	<line x1="279" y1="170" x2="290" y2="170" style="stroke:rgb(255, 255, 255);stroke-linecap:square;stroke-width:2" />
	<line x1="279" y1="210" x2="290" y2="210" style="stroke:rgb(255, 255, 255);stroke-linecap:square;stroke-width:2" />
	<line x1="250" y1="170" x2="250" y2="210" style="stroke:rgb(255, 255, 255);stroke-linecap:square;stroke-width:2" />
	<line x1="260" y1="170" x2="260" y2="210" style="stroke:rgb(255, 255, 255);stroke-linecap:square;stroke-width:2" />
	<path d="M 231,170 A 1.5,2 90 1 1 231,180 M 231,180 A 1.5,2 90 1 1 231,190 M 231,190 A 1.5,2 90 1 1 231,200 M 231,200 A 1.5,2 90 1 1 231,210 M 231,210" style="fill-opacity:0;fill:rgb(255, 255, 255);stroke:rgb(255, 255, 255);stroke-linecap:square;stroke-width:2" />
	<path d="M 279,170 A 1.5,2 90 1 0 279,180 M 279,180 A 1.5,2 90 1 0 279,190 M 279,190 A 1.5,2 90 1 0 279,200 M 279,200 A 1.5,2 90 1 0 279,210 M 279,210" style="fill-opacity:0;fill:rgb(255, 255, 255);stroke:rgb(255, 255, 255);stroke-linecap:square;stroke-width:2" />
	<line x1="290" y1="210" x2="290" y2="240" style="stroke:rgb(255, 255, 255);stroke-linecap:square;stroke-width:2" />
	<line x1="220" y1="210" x2="220" y2="240" style="stroke:rgb(255, 255, 255);stroke-linecap:square;stroke-width:2" />
	<line x1="90" y1="240" x2="320" y2="240" style="stroke:rgb(255, 255, 255);stroke-linecap:square;stroke-width:2" />
	<line x1="170" y1="140" x2="220" y2="140" style="stroke:rgb(255, 255, 255);stroke-linecap:square;stroke-width:2" />
	<line x1="150" y1="90" x2="150" y2="120" style="stroke:rgb(255, 255, 255);stroke-linecap:square;stroke-width:2" />
	<line x1="90" y1="70" x2="90" y2="140" style="stroke:rgb(255, 255, 255);stroke-linecap:square;stroke-width:2" />
	<line x1="90" y1="60" x2="90" y2="70" style="stroke:rgb(255, 255, 255);stroke-linecap:square;stroke-width:2" />
	<line x1="220" y1="60" x2="220" y2="96" style="stroke:rgb(255, 255, 255);stroke-linecap:square;stroke-width:2" />
	<line x1="220" y1="104" x2="220" y2="140" style="stroke:rgb(255, 255, 255);stroke-linecap:square;stroke-width:2" />
	<line x1="206" y1="96" x2="234" y2="96" style="stroke:rgb(255, 255, 255);stroke-linecap:square;stroke-width:2" />
	<line x1="206" y1="104" x2="234" y2="104" style="stroke:rgb(255, 255, 255);stroke-linecap:square;stroke-width:2" />
	<text x="200" y="100" stroke="white" style="font-family:Arial;font-size:11px;text-anchor:end" dominant-baseline="middle" transform="rotate(0, 200, 100)">75 nF</text>
	<line x1="90" y1="60" x2="100" y2="60" style="stroke:rgb(255, 255, 255);stroke-linecap:square;stroke-width:2" />
	<line x1="140" y1="60" x2="140" y2="60" style="stroke:rgb(255, 255, 255);stroke-linecap:square;stroke-width:2" />
	<path d="M 100,60 L 102,60 L 105,53 L 111,67 L 117,53 L 123,67 L 129,53 L 135,67 L 138,60 L 140,60" style="fill-opacity:0;fill:rgb(255, 255, 255);stroke:rgb(255, 255, 255);stroke-linecap:square;stroke-width:2" />
	<text x="120" y="46" stroke="white" style="font-family:Arial;font-size:11px;text-anchor:middle" dominant-baseline="baseline" transform="rotate(0, 120, 46)">250 kΩ</text>
	<path d="M 100,60 M 114,76 L 120,70 L 126,76 M 120,71 L 120,89" style="fill-opacity:0;fill:rgb(255, 255, 255);stroke:rgb(255, 255, 255);stroke-linecap:square;stroke-width:2" />
	<line x1="150" y1="90" x2="180" y2="90" style="stroke:rgb(255, 255, 255);stroke-linecap:square;stroke-width:2" />
	<line x1="140" y1="60" x2="220" y2="60" style="stroke:rgb(255, 255, 255);stroke-linecap:square;stroke-width:2" />
	<line x1="160" y1="90" x2="160" y2="60" style="stroke:rgb(255, 255, 255);stroke-linecap:square;stroke-width:2" />
	<path d="M 160,68 M 152,68 L 168,68 M 160,68 L 168,83 L 152,83 L 160,68" style="fill-opacity:0;fill:rgb(255, 255, 255);stroke:rgb(255, 255, 255);stroke-linecap:square;stroke-width:2" />
	<line x1="169" y1="68" x2="169" y2="73" style="stroke:rgb(255, 255, 255);stroke-linecap:square;stroke-width:2" />
	<line x1="180" y1="60" x2="180" y2="90" style="stroke:rgb(255, 255, 255);stroke-linecap:square;stroke-width:2" />
	<path d="M 180,82 M 172,82 L 188,82 M 180,82 L 188,67 L 172,67 L 180,82" style="fill-opacity:0;fill:rgb(255, 255, 255);stroke:rgb(255, 255, 255);stroke-linecap:square;stroke-width:2" />
	<line x1="189" y1="82" x2="189" y2="77" style="stroke:rgb(255, 255, 255);stroke-linecap:square;stroke-width:2" />
	<line x1="90" y1="180" x2="90" y2="198" style="stroke:rgb(255, 255, 255);stroke-linecap:square;stroke-width:2" />
	<ellipse cx="90" cy="210" rx="12" ry="12" style="fill-opacity:0;fill:rgb(255, 255, 255);stroke:rgb(255, 255, 255);stroke-width:2" />
	<line x1="90" y1="222" x2="90" y2="240" style="stroke:rgb(255, 255, 255);stroke-linecap:square;stroke-width:2" />
	<path d="M 90,210 M 82,210 A 4,4 180 1 1 90,210 A 4,4 180 1 0 98,210" style="fill-opacity:0;fill:rgb(255, 255, 255);stroke:rgb(255, 255, 255);stroke-linecap:square;stroke-width:2" />
	<ellipse cx="130" cy="140" rx="20" ry="20" style="fill-opacity:0;fill:rgb(255, 255, 255);stroke:rgb(255, 255, 255);stroke-width:2" />
	<line x1="170" y1="140" x2="137" y2="140" style="stroke:rgb(255, 255, 255);stroke-linecap:square;stroke-width:2" />
	<line x1="123" y1="140" x2="90" y2="140" style="stroke:rgb(255, 255, 255);stroke-linecap:square;stroke-width:2" />
	<line x1="123" y1="140" x2="123" y2="126" style="stroke:rgb(255, 255, 255);stroke-linecap:square;stroke-width:2" />
	<line x1="123" y1="126" x2="137" y2="133" style="stroke:rgb(255, 255, 255);stroke-linecap:square;stroke-width:2" />
	<line x1="137" y1="133" x2="123" y2="140" style="stroke:rgb(255, 255, 255);stroke-linecap:square;stroke-width:2" />
	<line x1="123" y1="140" x2="123" y2="154" style="stroke:rgb(255, 255, 255);stroke-linecap:square;stroke-width:2" />
	<line x1="137" y1="126" x2="137" y2="154" style="stroke:rgb(255, 255, 255);stroke-linecap:square;stroke-width:2" />
	<line x1="137" y1="154" x2="123" y2="147" style="stroke:rgb(255, 255, 255);stroke-linecap:square;stroke-width:2" />
	<line x1="123" y1="147" x2="137" y2="140" style="stroke:rgb(255, 255, 255);stroke-linecap:square;stroke-width:2" />
	<line x1="137" y1="133" x2="150" y2="127" style="stroke:rgb(255, 255, 255);stroke-linecap:square;stroke-width:2" />
	<line x1="150" y1="127" x2="150" y2="120" style="stroke:rgb(255, 255, 255);stroke-linecap:square;stroke-width:2" />
	<line x1="90" y1="140" x2="90" y2="161" style="stroke:rgb(255, 255, 255);stroke-linecap:square;stroke-width:2" />
	<line x1="90" y1="169" x2="90" y2="190" style="stroke:rgb(255, 255, 255);stroke-linecap:square;stroke-width:2" />
	<line x1="76" y1="161" x2="104" y2="161" style="stroke:rgb(255, 255, 255);stroke-linecap:square;stroke-width:2" />
	<line x1="76" y1="169" x2="104" y2="169" style="stroke:rgb(255, 255, 255);stroke-linecap:square;stroke-width:2" />
	<text x="70" y="165" stroke="white" style="font-family:Arial;font-size:11px;text-anchor:end" dominant-baseline="middle" transform="rotate(0, 70, 165)">20 µF</text>
	<ellipse cx="220" cy="140" rx="2" ry="2" style="fill-opacity:1;fill:rgb(255, 255, 255);stroke:rgb(255, 255, 255);stroke-width:2" />
	<ellipse cx="90" cy="240" rx="2" ry="2" style="fill-opacity:1;fill:rgb(255, 255, 255);stroke:rgb(255, 255, 255);stroke-width:2" />
	<ellipse cx="290" cy="240" rx="2" ry="2" style="fill-opacity:1;fill:rgb(255, 255, 255);stroke:rgb(255, 255, 255);stroke-width:2" />
	<ellipse cx="220" cy="240" rx="2" ry="2" style="fill-opacity:1;fill:rgb(255, 255, 255);stroke:rgb(255, 255, 255);stroke-width:2" />
	<ellipse cx="90" cy="140" rx="2" ry="2" style="fill-opacity:1;fill:rgb(255, 255, 255);stroke:rgb(255, 255, 255);stroke-width:2" />
	<ellipse cx="160" cy="90" rx="2" ry="2" style="fill-opacity:1;fill:rgb(255, 255, 255);stroke:rgb(255, 255, 255);stroke-width:2" />
	<ellipse cx="160" cy="60" rx="2" ry="2" style="fill-opacity:1;fill:rgb(255, 255, 255);stroke:rgb(255, 255, 255);stroke-width:2" />
	<ellipse cx="180" cy="60" rx="2" ry="2" style="fill-opacity:1;fill:rgb(255, 255, 255);stroke:rgb(255, 255, 255);stroke-width:2" />
</svg>