<?xml version="1.0" encoding="UTF-8" standalone="no"?>
<svg
   x="0"
   y="0"
   width="702"
   height="237"
   style="         width:702px;         height:237px;         background: transparent;         fill: none; "
   version="1.1"
   id="svg52"
   sodipodi:docname="dt-timestep.svg"
   inkscape:version="1.4.3 (0d15f75, 2025-12-25)"
   xmlns:inkscape="http://www.inkscape.org/namespaces/inkscape"
   xmlns:sodipodi="http://sodipodi.sourceforge.net/DTD/sodipodi-0.dtd"
   xmlns="http://www.w3.org/2000/svg"
   xmlns:svg="http://www.w3.org/2000/svg">
  <defs
     id="defs52" />
  <sodipodi:namedview
     id="namedview52"
     pagecolor="#ffffff"
     bordercolor="#000000"
     borderopacity="0.25"
     inkscape:showpageshadow="2"
     inkscape:pageopacity="0.0"
     inkscape:pagecheckerboard="0"
     inkscape:deskcolor="#d1d1d1"
     inkscape:zoom="1.5978608"
     inkscape:cx="430.88859"
     inkscape:cy="164.59506"
     inkscape:window-width="1470"
     inkscape:window-height="919"
     inkscape:window-x="0"
     inkscape:window-y="37"
     inkscape:window-maximized="0"
     inkscape:current-layer="svg51" />
  <svg
     class="role-diagram-draw-area"
     style="overflow: visible;"
     version="1.1"
     id="svg25">
    <g
       class="shapes-region"
       style="stroke: black; fill: none;"
       id="g22">
      <g
         class="arrow-line"
         id="g3">
        <path
           class="connection real"
           stroke-dasharray=""
           d="  M498.54,44.95 L427.77,131.52"
           style="stroke: rgb(255, 255, 255); stroke-opacity: 1; stroke-width: 1; fill: none; fill-opacity: 1;"
           id="path1" />
        <g
           stroke="rgb(255,255,255)"
           stroke-opacity="1"
           fill="rgb(255,255,255)"
           fill-opacity="1"
           transform="matrix(-0.6329756040372635,0.7741717410844066,-0.7741717410844066,-0.6329756040372635,427.7694831474138,131.52279558340396)"
           style="stroke: rgb(255, 255, 255); fill: rgb(255, 255, 255); stroke-width: 1;"
           id="g1">
          <circle
             cx="0"
             cy="0"
             r="3.35"
             id="circle1" />
        </g>
        <g
           stroke="rgb(255,255,255)"
           stroke-opacity="1"
           fill="rgb(255,255,255)"
           fill-opacity="1"
           transform="matrix(-0.6329756040372635,0.7741717410844066,-0.7741717410844066,-0.6329756040372635,498.5426678262291,44.95015324170936)"
           style="stroke: rgb(255, 255, 255); fill: rgb(255, 255, 255); stroke-width: 1;"
           id="g2">
          <circle
             cx="0"
             cy="0"
             r="3.35"
             id="circle2" />
        </g>
      </g>
      <g
         class="arrow-line"
         id="g6">
        <path
           class="connection real"
           stroke-dasharray=""
           d="  M427.77,131.52 L316.98,131.35"
           style="stroke: rgb(255, 255, 255); stroke-opacity: 1; stroke-width: 1; fill: none; fill-opacity: 1;"
           id="path3" />
        <g
           stroke="rgb(255,255,255)"
           stroke-opacity="1"
           fill="rgb(255,255,255)"
           fill-opacity="1"
           transform="matrix(-0.9999987662997035,-0.0015707956808306586,0.0015707956808306586,-0.9999987662997035,316.9834762016921,131.3542226832767)"
           style="stroke: rgb(255, 255, 255); fill: rgb(255, 255, 255); stroke-width: 1;"
           id="g4">
          <circle
             cx="0"
             cy="0"
             r="3.35"
             id="circle3" />
        </g>
        <g
           stroke="rgb(255,255,255)"
           stroke-opacity="1"
           fill="rgb(255,255,255)"
           fill-opacity="1"
           transform="matrix(-0.9999987662997035,-0.0015707956808306586,0.0015707956808306586,-0.9999987662997035,427.7694831474138,131.522795583404)"
           style="stroke: rgb(255, 255, 255); fill: rgb(255, 255, 255); stroke-width: 1;"
           id="g5">
          <circle
             cx="0"
             cy="0"
             r="3.35"
             id="circle4" />
        </g>
      </g>
      <g
         class="arrow-line"
         id="g9">
        <path
           class="connection real"
           stroke-dasharray=""
           d="  M468.51,40.71 L427.77,131.52"
           style="stroke: rgb(255, 255, 255); stroke-opacity: 1; stroke-width: 1; fill: none; fill-opacity: 1;"
           id="path6" />
        <g
           stroke="rgb(255,255,255)"
           stroke-opacity="1"
           fill="rgb(255,255,255)"
           fill-opacity="1"
           transform="matrix(-0.4092861540295105,0.9124060741357062,-0.9124060741357062,-0.4092861540295105,427.76948314741384,131.52279558340396)"
           style="stroke: rgb(255, 255, 255); fill: rgb(255, 255, 255); stroke-width: 1;"
           id="g7">
          <circle
             cx="0"
             cy="0"
             r="3.35"
             id="circle6" />
        </g>
        <g
           stroke="rgb(255,255,255)"
           stroke-opacity="1"
           fill="rgb(255,255,255)"
           fill-opacity="1"
           transform="matrix(-0.4092861540295105,0.9124060741357062,-0.9124060741357062,-0.4092861540295105,468.5100340327001,40.71448672949617)"
           style="stroke: rgb(255, 255, 255); fill: rgb(255, 255, 255); stroke-width: 1;"
           id="g8">
          <circle
             cx="0"
             cy="0"
             r="3.35"
             id="circle7" />
        </g>
      </g>
      <g
         class="arrow-line"
         id="g12">
        <path
           class="connection real"
           stroke-dasharray=""
           d="  M498.54,44.95 L316.98,131.39"
           style="stroke: rgb(255, 255, 255); stroke-opacity: 1; stroke-width: 1; fill: none; fill-opacity: 1;"
           id="path9" />
        <g
           stroke="rgb(255,255,255)"
           stroke-opacity="1"
           fill="rgb(255,255,255)"
           fill-opacity="1"
           transform="matrix(-0.9028856178151217,0.4298808685468638,-0.4298808685468638,-0.9028856178151217,316.98372906302467,131.3879148115463)"
           style="stroke: rgb(255, 255, 255); fill: rgb(255, 255, 255); stroke-width: 1;"
           id="g10">
          <circle
             cx="0"
             cy="0"
             r="3.35"
             id="circle9" />
        </g>
        <g
           stroke="rgb(255,255,255)"
           stroke-opacity="1"
           fill="rgb(255,255,255)"
           fill-opacity="1"
           transform="matrix(-0.9028856178151217,0.4298808685468638,-0.4298808685468638,-0.9028856178151217,498.54266782622904,44.95015324170939)"
           style="stroke: rgb(255, 255, 255); fill: rgb(255, 255, 255); stroke-width: 1;"
           id="g11">
          <circle
             cx="0"
             cy="0"
             r="3.35"
             id="circle10" />
        </g>
      </g>
      <g
         class="composite-shape"
         id="g13">
        <path
           class="real"
           d=" M332.57,124 C335.15,126.02 336.68,128.57 336.69,131.33 C336.69,131.4 336.69,131.47 336.68,131.54 L316.98,131.35 Z"
           style="stroke-width: 1; stroke: none; stroke-opacity: 1; fill: rgb(155, 155, 155); fill-opacity: 0.28;"
           id="path12" />
        <path
           class="real"
           d=" M332.57,124 C335.15,126.02 336.68,128.57 336.69,131.33 C336.69,131.4 336.69,131.47 336.68,131.54"
           style="stroke-width: 1; stroke: rgb(255, 255, 255); stroke-opacity: 1; fill: none; fill-opacity: 0.28;"
           id="path13" />
      </g>
      <g
         class="arrow-line"
         id="g14">
        <path
           class="connection real"
           stroke-dasharray=""
           d="  M468.51,40.71 L316.98,131.35"
           style="stroke: rgb(255, 255, 255); stroke-width: 1; fill: none; fill-opacity: 1; stroke-opacity: 1;"
           id="path14" />
      </g>
      <g
         class="arrow-line"
         id="g15">
        <path
           class="connection real"
           stroke-dasharray=""
           d="  M498.54,44.95 L468.51,40.71"
           style="stroke: rgb(255, 255, 255); stroke-width: 1; fill: none; fill-opacity: 1; stroke-opacity: 1;"
           id="path15" />
      </g>
      <g
         class="shape"
         id="g16">
        <polygon
           class="real"
           points=" 498.54,44.95 498.54,44.95 487.12,58.92 427.77,131.52 468.51,40.71"
           style="stroke: rgb(255, 255, 255); stroke-width: 1; fill: rgb(248, 231, 28); fill-opacity: 0.16; stroke-opacity: 1;"
           id="polygon15" />
      </g>
      <g
         class="composite-shape"
         id="g17">
        <path
           class="real"
           d=" M383.99,90.71 C388.3,91.54 391.49,93.09 393.29,95.4 L316.98,131.35 Z"
           style="stroke-width: 1; stroke: none; stroke-opacity: 1; fill: rgb(155, 155, 155); fill-opacity: 0.28;"
           id="path16" />
        <path
           class="real"
           d=" M383.99,90.71 C388.3,91.54 391.49,93.09 393.29,95.4"
           style="stroke-width: 1; stroke: rgb(255, 255, 255); stroke-opacity: 1; fill: none; fill-opacity: 0.28;"
           id="path17" />
      </g>
      <g
         class="arrow-line"
         id="g18">
        <path
           class="connection real"
           stroke-dasharray=""
           d="  M427.77,131.52 L522.88,130.38"
           style="stroke: rgb(255, 255, 255); stroke-width: 1; fill: none; fill-opacity: 1; stroke-opacity: 1;"
           id="path18" />
      </g>
      <g
         class="composite-shape"
         id="g20">
        <path
           class="real"
           d=" M498.54,44.95 C519.89,65 528.46,97.1 522.88,130.38 L428.27,131.24 Z"
           style="stroke-width: 1; stroke: none; stroke-opacity: 1; fill: rgb(126, 211, 33); fill-opacity: 0.14;"
           id="path19" />
        <path
           class="real"
           d=" M498.54,44.95 C519.89,65 528.46,97.1 522.88,130.38"
           style="stroke-width: 1; stroke: rgb(255, 255, 255); stroke-opacity: 1; fill: none; fill-opacity: 0.14;"
           id="path20" />
      </g>
      <g
         id="g21" />
    </g>
    <g
       id="g23" />
    <g
       id="g24" />
    <g
       id="g25" />
  </svg>
  <svg
     width="700"
     height="235"
     style="width:700px;height:235px;font-family:Asana-Math, Asana;background:transparent;"
     version="1.1"
     id="svg51">
    <g
       transform="matrix(0.8910065241883678,-0.45399049973954697,0.45399049973954697,0.8910065241883678,-18.854831318830975,169.7608504425798)"
       id="g29">
      <g
         id="g28">
        <g
           id="g27">
          <g
             transform="matrix(1,0,0,1,338.90234375,129.58828125)"
             id="g26">
            <path
               transform="matrix(0.0136,0,0,-0.0136,0,0)"
               d="M547 504C529 618 483 702 356 702C96 702 60 412 94 199C113 80 164 -16 300 -16C536 -16 576 316 547 504ZM478 381L162 381C169 485 213 676 342 676C428 676 461 585 472 517C479 472 478 426 478 381ZM478 349C473 237 454 13 311 13C209 13 181 125 169 203C161 252 162 301 162 349Z"
               stroke="rgb(255,255,255)"
               stroke-opacity="1"
               stroke-width="8"
               fill="rgb(255,255,255)"
               fill-opacity="1"
               id="path25" />
          </g>
        </g>
      </g>
    </g>
    <g
       transform="matrix(0.9999718382517224,-0.0075048453329267465,0.0075048453329267465,0.9999718382517224,-0.4623668302456849,3.533518059189092)"
       id="g32">
      <g
         id="g31">
        <g
           id="g30">
          <text
             x="464.171875"
             y="57.52734375"
             style="white-space:pre;stroke:none;fill:rgb(255,255,255);fill-opacity:1;font-size:10.5px;font-family:Arial, Helvetica, sans-serif;font-weight:400;font-style:normal;dominant-baseline:text-before-edge;text-decoration:none;"
             id="text29">dA</text>
        </g>
      </g>
    </g>
    <g
       transform="matrix(0.9999718382517224,-0.0075048453329267465,0.0075048453329267465,0.9999718382517224,-1.0365824096052165,2.8541294255622347)"
       id="g35">
      <g
         id="g34">
        <g
           id="g33">
          <text
             x="375.40625"
             y="131.046875"
             style="white-space:pre;stroke:none;fill:rgb(255,255,255);fill-opacity:1;font-size:15px;font-family:Arial, Helvetica, sans-serif;font-weight:400;font-style:normal;dominant-baseline:text-before-edge;text-decoration:none;"
             id="text32">l</text>
        </g>
      </g>
    </g>
    <g
       transform="matrix(0.9082162299015545,-0.41850123027705277,0.41850123027705277,0.9082162299015545,-0.3507865205207281,182.22866367644494)"
       id="g38">
      <g
         id="g37">
        <g
           id="g36">
          <text
             x="410.8984375"
             y="83.4140625"
             style="white-space:pre;stroke:none;fill:rgb(255,255,255);fill-opacity:1;font-size:15px;font-family:Arial, Helvetica, sans-serif;font-weight:400;font-style:normal;dominant-baseline:text-before-edge;text-decoration:none;"
             id="text35">r</text>
        </g>
      </g>
    </g>
    <g
       transform="matrix(0.9893740770682332,0.14539235064260303,-0.14539235064260303,0.9893740770682332,10.251969004194393,-70.19748981542708)"
       id="g41">
      <g
         id="g40">
        <g
           id="g39">
          <text
             x="478.703125"
             y="26.5390625"
             style="white-space:pre;stroke:none;fill:rgb(255,255,255);fill-opacity:1;font-size:15px;font-family:Arial, Helvetica, sans-serif;font-weight:400;font-style:normal;dominant-baseline:text-before-edge;text-decoration:none;"
             id="text38">dr</text>
        </g>
      </g>
    </g>
    <g
       transform="matrix(0.8771461637055887,-0.48022349744318904,0.48022349744318904,0.8771461637055887,6.435301485487912,201.27995713993388)"
       id="g48">
      <g
         id="g47">
        <g
           id="g46">
          <g
             id="g45">
            <g
               id="g44">
              <g
                 id="g43">
                <g
                   transform="matrix(1,0,0,1,391.8828125,91.46484375)"
                   id="g42">
                  <path
                     transform="matrix(0.0085,0,0,-0.0085,0,0)"
                     d="M483 722L471 733C419 707 383 698 311 691L307 670L355 670C379 670 389 663 389 646C389 638 388 629 387 622L359 468C329 477 302 482 277 482C208 482 114 410 68 323C37 265 17 170 17 86C17 21 32 -11 61 -11C88 -11 125 6 159 33C213 77 246 116 313 217L290 126C279 82 274 50 274 24C274 3 283 -9 300 -9C317 -9 341 3 375 28L456 88L446 107L402 76C388 66 372 59 363 59C355 59 349 68 349 82C349 90 350 99 357 128ZM114 59C98 59 89 73 89 98C89 224 135 380 184 418C197 428 216 433 243 433C287 433 316 427 349 410L337 351C300 171 159 59 114 59ZM1046 504C1028 618 982 702 855 702C595 702 559 412 593 199C612 80 663 -16 799 -16C1035 -16 1075 316 1046 504ZM977 381L661 381C668 485 712 676 841 676C927 676 960 585 971 517C978 472 977 426 977 381ZM977 349C972 237 953 13 810 13C708 13 680 125 668 203C660 252 661 301 661 349Z"
                     stroke="rgb(255,255,255)"
                     stroke-opacity="1"
                     stroke-width="8"
                     fill="rgb(255,255,255)"
                     fill-opacity="1"
                     id="path41" />
                </g>
              </g>
            </g>
          </g>
        </g>
      </g>
    </g>
    <g
       id="g51">
      <g
         id="g50">
        <g
           id="g49">
          <text
             x="493.1640625"
             y="79.1640625"
             style="white-space:pre;stroke:none;fill:#ffffff;fill-opacity:1;font-size:15px;font-family:Arial, Helvetica, sans-serif;font-weight:400;font-style:normal;dominant-baseline:text-before-edge;text-decoration:none"
             id="text48">A</text>
        </g>
      </g>
    </g>
  </svg>
</svg>
