<?xml version="1.0" encoding="utf-8" standalone="no"?>
<!DOCTYPE svg PUBLIC "-//W3C//DTD SVG 1.1//EN"
  "http://www.w3.org/Graphics/SVG/1.1/DTD/svg11.dtd">
<svg xmlns:xlink="http://www.w3.org/1999/xlink" width="460.8pt" height="345.6pt" viewBox="0 0 460.8 345.6" xmlns="http://www.w3.org/2000/svg" version="1.1">
 <metadata>
  <rdf:RDF xmlns:dc="http://purl.org/dc/elements/1.1/" xmlns:cc="http://creativecommons.org/ns#" xmlns:rdf="http://www.w3.org/1999/02/22-rdf-syntax-ns#">
   <cc:Work>
    <dc:type rdf:resource="http://purl.org/dc/dcmitype/StillImage"/>
    <dc:date>2024-10-18T17:00:33.275681</dc:date>
    <dc:format>image/svg+xml</dc:format>
    <dc:creator>
     <cc:Agent>
      <dc:title>Matplotlib v3.9.2, https://matplotlib.org/</dc:title>
     </cc:Agent>
    </dc:creator>
   </cc:Work>
  </rdf:RDF>
 </metadata>
 <defs>
  <style type="text/css">*{stroke-linejoin: round; stroke-linecap: butt}</style>
 </defs>
 <g id="figure_1">
  <g id="patch_1">
   <path d="M 0 345.6 
L 460.8 345.6 
L 460.8 0 
L 0 0 
z
" style="fill: #ffffff"/>
  </g>
  <g id="axes_1">
   <g id="LineCollection_1">
    <path d="M 39.986777 258.48595 
L 135.193388 315.609917 
" clip-path="url(#p34aeb42ab4)" style="fill: none; stroke: #000000"/>
    <path d="M 39.986777 258.48595 
L 135.193388 258.48595 
" clip-path="url(#p34aeb42ab4)" style="fill: none; stroke: #000000"/>
    <path d="M 39.986777 258.48595 
L 135.193388 201.361983 
" clip-path="url(#p34aeb42ab4)" style="fill: none; stroke: #000000"/>
    <path d="M 39.986777 258.48595 
L 135.193388 144.238017 
" clip-path="url(#p34aeb42ab4)" style="fill: none; stroke: #000000"/>
    <path d="M 39.986777 258.48595 
L 135.193388 87.11405 
" clip-path="url(#p34aeb42ab4)" style="fill: none; stroke: #000000"/>
    <path d="M 39.986777 201.361983 
L 135.193388 315.609917 
" clip-path="url(#p34aeb42ab4)" style="fill: none; stroke: #000000"/>
    <path d="M 39.986777 201.361983 
L 135.193388 258.48595 
" clip-path="url(#p34aeb42ab4)" style="fill: none; stroke: #000000"/>
    <path d="M 39.986777 201.361983 
L 135.193388 201.361983 
" clip-path="url(#p34aeb42ab4)" style="fill: none; stroke: #000000"/>
    <path d="M 39.986777 201.361983 
L 135.193388 144.238017 
" clip-path="url(#p34aeb42ab4)" style="fill: none; stroke: #000000"/>
    <path d="M 39.986777 201.361983 
L 135.193388 87.11405 
" clip-path="url(#p34aeb42ab4)" style="fill: none; stroke: #000000"/>
    <path d="M 39.986777 144.238017 
L 135.193388 315.609917 
" clip-path="url(#p34aeb42ab4)" style="fill: none; stroke: #000000"/>
    <path d="M 39.986777 144.238017 
L 135.193388 258.48595 
" clip-path="url(#p34aeb42ab4)" style="fill: none; stroke: #000000"/>
    <path d="M 39.986777 144.238017 
L 135.193388 201.361983 
" clip-path="url(#p34aeb42ab4)" style="fill: none; stroke: #000000"/>
    <path d="M 39.986777 144.238017 
L 135.193388 144.238017 
" clip-path="url(#p34aeb42ab4)" style="fill: none; stroke: #000000"/>
    <path d="M 39.986777 144.238017 
L 135.193388 87.11405 
" clip-path="url(#p34aeb42ab4)" style="fill: none; stroke: #000000"/>
    <path d="M 39.986777 87.11405 
L 135.193388 315.609917 
" clip-path="url(#p34aeb42ab4)" style="fill: none; stroke: #000000"/>
    <path d="M 39.986777 87.11405 
L 135.193388 258.48595 
" clip-path="url(#p34aeb42ab4)" style="fill: none; stroke: #000000"/>
    <path d="M 39.986777 87.11405 
L 135.193388 201.361983 
" clip-path="url(#p34aeb42ab4)" style="fill: none; stroke: #000000"/>
    <path d="M 39.986777 87.11405 
L 135.193388 144.238017 
" clip-path="url(#p34aeb42ab4)" style="fill: none; stroke: #000000"/>
    <path d="M 39.986777 87.11405 
L 135.193388 87.11405 
" clip-path="url(#p34aeb42ab4)" style="fill: none; stroke: #000000"/>
    <path d="M 135.193388 315.609917 
L 230.4 315.609917 
" clip-path="url(#p34aeb42ab4)" style="fill: none; stroke: #000000"/>
    <path d="M 135.193388 315.609917 
L 230.4 258.48595 
" clip-path="url(#p34aeb42ab4)" style="fill: none; stroke: #000000"/>
    <path d="M 135.193388 315.609917 
L 230.4 201.361983 
" clip-path="url(#p34aeb42ab4)" style="fill: none; stroke: #000000"/>
    <path d="M 135.193388 315.609917 
L 230.4 144.238017 
" clip-path="url(#p34aeb42ab4)" style="fill: none; stroke: #000000"/>
    <path d="M 135.193388 315.609917 
L 230.4 87.11405 
" clip-path="url(#p34aeb42ab4)" style="fill: none; stroke: #000000"/>
    <path d="M 135.193388 258.48595 
L 230.4 315.609917 
" clip-path="url(#p34aeb42ab4)" style="fill: none; stroke: #000000"/>
    <path d="M 135.193388 258.48595 
L 230.4 258.48595 
" clip-path="url(#p34aeb42ab4)" style="fill: none; stroke: #000000"/>
    <path d="M 135.193388 258.48595 
L 230.4 201.361983 
" clip-path="url(#p34aeb42ab4)" style="fill: none; stroke: #000000"/>
    <path d="M 135.193388 258.48595 
L 230.4 144.238017 
" clip-path="url(#p34aeb42ab4)" style="fill: none; stroke: #000000"/>
    <path d="M 135.193388 258.48595 
L 230.4 87.11405 
" clip-path="url(#p34aeb42ab4)" style="fill: none; stroke: #000000"/>
    <path d="M 135.193388 201.361983 
L 230.4 315.609917 
" clip-path="url(#p34aeb42ab4)" style="fill: none; stroke: #000000"/>
    <path d="M 135.193388 201.361983 
L 230.4 258.48595 
" clip-path="url(#p34aeb42ab4)" style="fill: none; stroke: #000000"/>
    <path d="M 135.193388 201.361983 
L 230.4 201.361983 
" clip-path="url(#p34aeb42ab4)" style="fill: none; stroke: #000000"/>
    <path d="M 135.193388 201.361983 
L 230.4 144.238017 
" clip-path="url(#p34aeb42ab4)" style="fill: none; stroke: #000000"/>
    <path d="M 135.193388 201.361983 
L 230.4 87.11405 
" clip-path="url(#p34aeb42ab4)" style="fill: none; stroke: #000000"/>
    <path d="M 135.193388 144.238017 
L 230.4 315.609917 
" clip-path="url(#p34aeb42ab4)" style="fill: none; stroke: #000000"/>
    <path d="M 135.193388 144.238017 
L 230.4 258.48595 
" clip-path="url(#p34aeb42ab4)" style="fill: none; stroke: #000000"/>
    <path d="M 135.193388 144.238017 
L 230.4 201.361983 
" clip-path="url(#p34aeb42ab4)" style="fill: none; stroke: #000000"/>
    <path d="M 135.193388 144.238017 
L 230.4 144.238017 
" clip-path="url(#p34aeb42ab4)" style="fill: none; stroke: #000000"/>
    <path d="M 135.193388 144.238017 
L 230.4 87.11405 
" clip-path="url(#p34aeb42ab4)" style="fill: none; stroke: #000000"/>
    <path d="M 135.193388 87.11405 
L 230.4 315.609917 
" clip-path="url(#p34aeb42ab4)" style="fill: none; stroke: #000000"/>
    <path d="M 135.193388 87.11405 
L 230.4 258.48595 
" clip-path="url(#p34aeb42ab4)" style="fill: none; stroke: #000000"/>
    <path d="M 135.193388 87.11405 
L 230.4 201.361983 
" clip-path="url(#p34aeb42ab4)" style="fill: none; stroke: #000000"/>
    <path d="M 135.193388 87.11405 
L 230.4 144.238017 
" clip-path="url(#p34aeb42ab4)" style="fill: none; stroke: #000000"/>
    <path d="M 135.193388 87.11405 
L 230.4 87.11405 
" clip-path="url(#p34aeb42ab4)" style="fill: none; stroke: #000000"/>
    <path d="M 135.193388 29.990083 
L 230.4 315.609917 
" clip-path="url(#p34aeb42ab4)" style="fill: none; stroke: #000000"/>
    <path d="M 135.193388 29.990083 
L 230.4 258.48595 
" clip-path="url(#p34aeb42ab4)" style="fill: none; stroke: #000000"/>
    <path d="M 135.193388 29.990083 
L 230.4 201.361983 
" clip-path="url(#p34aeb42ab4)" style="fill: none; stroke: #000000"/>
    <path d="M 135.193388 29.990083 
L 230.4 144.238017 
" clip-path="url(#p34aeb42ab4)" style="fill: none; stroke: #000000"/>
    <path d="M 135.193388 29.990083 
L 230.4 87.11405 
" clip-path="url(#p34aeb42ab4)" style="fill: none; stroke: #000000"/>
    <path d="M 230.4 315.609917 
L 325.606612 315.609917 
" clip-path="url(#p34aeb42ab4)" style="fill: none; stroke: #000000"/>
    <path d="M 230.4 315.609917 
L 325.606612 258.48595 
" clip-path="url(#p34aeb42ab4)" style="fill: none; stroke: #000000"/>
    <path d="M 230.4 315.609917 
L 325.606612 201.361983 
" clip-path="url(#p34aeb42ab4)" style="fill: none; stroke: #000000"/>
    <path d="M 230.4 315.609917 
L 325.606612 144.238017 
" clip-path="url(#p34aeb42ab4)" style="fill: none; stroke: #000000"/>
    <path d="M 230.4 315.609917 
L 325.606612 87.11405 
" clip-path="url(#p34aeb42ab4)" style="fill: none; stroke: #000000"/>
    <path d="M 230.4 258.48595 
L 325.606612 315.609917 
" clip-path="url(#p34aeb42ab4)" style="fill: none; stroke: #000000"/>
    <path d="M 230.4 258.48595 
L 325.606612 258.48595 
" clip-path="url(#p34aeb42ab4)" style="fill: none; stroke: #000000"/>
    <path d="M 230.4 258.48595 
L 325.606612 201.361983 
" clip-path="url(#p34aeb42ab4)" style="fill: none; stroke: #000000"/>
    <path d="M 230.4 258.48595 
L 325.606612 144.238017 
" clip-path="url(#p34aeb42ab4)" style="fill: none; stroke: #000000"/>
    <path d="M 230.4 258.48595 
L 325.606612 87.11405 
" clip-path="url(#p34aeb42ab4)" style="fill: none; stroke: #000000"/>
    <path d="M 230.4 201.361983 
L 325.606612 315.609917 
" clip-path="url(#p34aeb42ab4)" style="fill: none; stroke: #000000"/>
    <path d="M 230.4 201.361983 
L 325.606612 258.48595 
" clip-path="url(#p34aeb42ab4)" style="fill: none; stroke: #000000"/>
    <path d="M 230.4 201.361983 
L 325.606612 201.361983 
" clip-path="url(#p34aeb42ab4)" style="fill: none; stroke: #000000"/>
    <path d="M 230.4 201.361983 
L 325.606612 144.238017 
" clip-path="url(#p34aeb42ab4)" style="fill: none; stroke: #000000"/>
    <path d="M 230.4 201.361983 
L 325.606612 87.11405 
" clip-path="url(#p34aeb42ab4)" style="fill: none; stroke: #000000"/>
    <path d="M 230.4 144.238017 
L 325.606612 315.609917 
" clip-path="url(#p34aeb42ab4)" style="fill: none; stroke: #000000"/>
    <path d="M 230.4 144.238017 
L 325.606612 258.48595 
" clip-path="url(#p34aeb42ab4)" style="fill: none; stroke: #000000"/>
    <path d="M 230.4 144.238017 
L 325.606612 201.361983 
" clip-path="url(#p34aeb42ab4)" style="fill: none; stroke: #000000"/>
    <path d="M 230.4 144.238017 
L 325.606612 144.238017 
" clip-path="url(#p34aeb42ab4)" style="fill: none; stroke: #000000"/>
    <path d="M 230.4 144.238017 
L 325.606612 87.11405 
" clip-path="url(#p34aeb42ab4)" style="fill: none; stroke: #000000"/>
    <path d="M 230.4 87.11405 
L 325.606612 315.609917 
" clip-path="url(#p34aeb42ab4)" style="fill: none; stroke: #000000"/>
    <path d="M 230.4 87.11405 
L 325.606612 258.48595 
" clip-path="url(#p34aeb42ab4)" style="fill: none; stroke: #000000"/>
    <path d="M 230.4 87.11405 
L 325.606612 201.361983 
" clip-path="url(#p34aeb42ab4)" style="fill: none; stroke: #000000"/>
    <path d="M 230.4 87.11405 
L 325.606612 144.238017 
" clip-path="url(#p34aeb42ab4)" style="fill: none; stroke: #000000"/>
    <path d="M 230.4 87.11405 
L 325.606612 87.11405 
" clip-path="url(#p34aeb42ab4)" style="fill: none; stroke: #000000"/>
    <path d="M 230.4 29.990083 
L 325.606612 315.609917 
" clip-path="url(#p34aeb42ab4)" style="fill: none; stroke: #000000"/>
    <path d="M 230.4 29.990083 
L 325.606612 258.48595 
" clip-path="url(#p34aeb42ab4)" style="fill: none; stroke: #000000"/>
    <path d="M 230.4 29.990083 
L 325.606612 201.361983 
" clip-path="url(#p34aeb42ab4)" style="fill: none; stroke: #000000"/>
    <path d="M 230.4 29.990083 
L 325.606612 144.238017 
" clip-path="url(#p34aeb42ab4)" style="fill: none; stroke: #000000"/>
    <path d="M 230.4 29.990083 
L 325.606612 87.11405 
" clip-path="url(#p34aeb42ab4)" style="fill: none; stroke: #000000"/>
    <path d="M 325.606612 315.609917 
L 420.813223 201.361983 
" clip-path="url(#p34aeb42ab4)" style="fill: none; stroke: #000000"/>
    <path d="M 325.606612 315.609917 
L 420.813223 144.238017 
" clip-path="url(#p34aeb42ab4)" style="fill: none; stroke: #000000"/>
    <path d="M 325.606612 258.48595 
L 420.813223 201.361983 
" clip-path="url(#p34aeb42ab4)" style="fill: none; stroke: #000000"/>
    <path d="M 325.606612 258.48595 
L 420.813223 144.238017 
" clip-path="url(#p34aeb42ab4)" style="fill: none; stroke: #000000"/>
    <path d="M 325.606612 201.361983 
L 420.813223 201.361983 
" clip-path="url(#p34aeb42ab4)" style="fill: none; stroke: #000000"/>
    <path d="M 325.606612 201.361983 
L 420.813223 144.238017 
" clip-path="url(#p34aeb42ab4)" style="fill: none; stroke: #000000"/>
    <path d="M 325.606612 144.238017 
L 420.813223 201.361983 
" clip-path="url(#p34aeb42ab4)" style="fill: none; stroke: #000000"/>
    <path d="M 325.606612 144.238017 
L 420.813223 144.238017 
" clip-path="url(#p34aeb42ab4)" style="fill: none; stroke: #000000"/>
    <path d="M 325.606612 87.11405 
L 420.813223 201.361983 
" clip-path="url(#p34aeb42ab4)" style="fill: none; stroke: #000000"/>
    <path d="M 325.606612 87.11405 
L 420.813223 144.238017 
" clip-path="url(#p34aeb42ab4)" style="fill: none; stroke: #000000"/>
    <path d="M 325.606612 29.990083 
L 420.813223 201.361983 
" clip-path="url(#p34aeb42ab4)" style="fill: none; stroke: #000000"/>
    <path d="M 325.606612 29.990083 
L 420.813223 144.238017 
" clip-path="url(#p34aeb42ab4)" style="fill: none; stroke: #000000"/>
   </g>
   <g id="PathCollection_1">
    <defs>
     <path id="m717a8cb922" d="M 0 8.660254 
C 2.296726 8.660254 4.499694 7.747755 6.123724 6.123724 
C 7.747755 4.499694 8.660254 2.296726 8.660254 0 
C 8.660254 -2.296726 7.747755 -4.499694 6.123724 -6.123724 
C 4.499694 -7.747755 2.296726 -8.660254 0 -8.660254 
C -2.296726 -8.660254 -4.499694 -7.747755 -6.123724 -6.123724 
C -7.747755 -4.499694 -8.660254 -2.296726 -8.660254 0 
C -8.660254 2.296726 -7.747755 4.499694 -6.123724 6.123724 
C -4.499694 7.747755 -2.296726 8.660254 0 8.660254 
z
" style="stroke: #1f78b4"/>
    </defs>
    <g clip-path="url(#p34aeb42ab4)">
     <use xlink:href="#m717a8cb922" x="39.986777" y="258.48595" style="fill: #1f78b4; stroke: #1f78b4"/>
     <use xlink:href="#m717a8cb922" x="39.986777" y="201.361983" style="fill: #1f78b4; stroke: #1f78b4"/>
     <use xlink:href="#m717a8cb922" x="39.986777" y="144.238017" style="fill: #1f78b4; stroke: #1f78b4"/>
     <use xlink:href="#m717a8cb922" x="39.986777" y="87.11405" style="fill: #1f78b4; stroke: #1f78b4"/>
     <use xlink:href="#m717a8cb922" x="135.193388" y="315.609917" style="fill: #1f78b4; stroke: #1f78b4"/>
     <use xlink:href="#m717a8cb922" x="135.193388" y="258.48595" style="fill: #1f78b4; stroke: #1f78b4"/>
     <use xlink:href="#m717a8cb922" x="135.193388" y="201.361983" style="fill: #1f78b4; stroke: #1f78b4"/>
     <use xlink:href="#m717a8cb922" x="135.193388" y="144.238017" style="fill: #1f78b4; stroke: #1f78b4"/>
     <use xlink:href="#m717a8cb922" x="135.193388" y="87.11405" style="fill: #1f78b4; stroke: #1f78b4"/>
     <use xlink:href="#m717a8cb922" x="135.193388" y="29.990083" style="fill: #1f78b4; stroke: #1f78b4"/>
     <use xlink:href="#m717a8cb922" x="230.4" y="315.609917" style="fill: #1f78b4; stroke: #1f78b4"/>
     <use xlink:href="#m717a8cb922" x="230.4" y="258.48595" style="fill: #1f78b4; stroke: #1f78b4"/>
     <use xlink:href="#m717a8cb922" x="230.4" y="201.361983" style="fill: #1f78b4; stroke: #1f78b4"/>
     <use xlink:href="#m717a8cb922" x="230.4" y="144.238017" style="fill: #1f78b4; stroke: #1f78b4"/>
     <use xlink:href="#m717a8cb922" x="230.4" y="87.11405" style="fill: #1f78b4; stroke: #1f78b4"/>
     <use xlink:href="#m717a8cb922" x="230.4" y="29.990083" style="fill: #1f78b4; stroke: #1f78b4"/>
     <use xlink:href="#m717a8cb922" x="325.606612" y="315.609917" style="fill: #1f78b4; stroke: #1f78b4"/>
     <use xlink:href="#m717a8cb922" x="325.606612" y="258.48595" style="fill: #1f78b4; stroke: #1f78b4"/>
     <use xlink:href="#m717a8cb922" x="325.606612" y="201.361983" style="fill: #1f78b4; stroke: #1f78b4"/>
     <use xlink:href="#m717a8cb922" x="325.606612" y="144.238017" style="fill: #1f78b4; stroke: #1f78b4"/>
     <use xlink:href="#m717a8cb922" x="325.606612" y="87.11405" style="fill: #1f78b4; stroke: #1f78b4"/>
     <use xlink:href="#m717a8cb922" x="325.606612" y="29.990083" style="fill: #1f78b4; stroke: #1f78b4"/>
     <use xlink:href="#m717a8cb922" x="420.813223" y="201.361983" style="fill: #1f78b4; stroke: #1f78b4"/>
     <use xlink:href="#m717a8cb922" x="420.813223" y="144.238017" style="fill: #1f78b4; stroke: #1f78b4"/>
    </g>
   </g>
  </g>
 </g>
 <defs>
  <clipPath id="p34aeb42ab4">
   <rect x="0" y="0" width="460.8" height="345.6"/>
  </clipPath>
 </defs>
</svg>
